# xmcd
#
# Track frame offsets: 
#        150
#        11857
#        22720
#        39134
#        50564
#        67044
#        81574
#        100089
#        110928
#        125928
#        136545
#        149208
#        161205
#        176233
#        187839
#
# Disc length: 2673 seconds
#
# Revision: 0
# Processed by: cddbd v1.5.2PL0 Copyright (c) Steve Scherf et al.
# Submitted via: ExactAudioCopy v1.1
#
DISCID=dc0a6f0f
DTITLE=Various Artist - Country Music of Your Life: I Believe In You 
DTITLE=[CD1]
DYEAR=2015
DGENRE=Country
TTITLE0=Patsy Cline - Walkin’ After Midnight
TTITLE1=George Jones - Tender Years
TTITLE2=Ray Charles - Georgia on My Mind
TTITLE3=Crystal Gayle - Don’t It Make My Brown Eyes Blue
TTITLE4=Kenny Rogers - You Decorated My Life
TTITLE5=Olivia Newton-John - If You Love Me (Let Me Know)
TTITLE6=Don Williams - I Believe in You
TTITLE7=Faron Young - Hello Walls
TTITLE8=Conway Twitty - I’d Love to Lay You Down
TTITLE9=Merle Haggard and the Strangers - Today I Started Loving You Aga
TTITLE9=in
TTITLE10=Bill Anderson - Still
TTITLE11=Glen Campbell - Galveston
TTITLE12=Roy Clark - Yesterday, When I Was Young
TTITLE13=Jack Greene - There Goes My Everything
TTITLE14=Sonny James - Since I Met You, Baby
EXTD=
EXTT0=
EXTT1=
EXTT2=
EXTT3=
EXTT4=
EXTT5=
EXTT6=
EXTT7=
EXTT8=
EXTT9=
EXTT10=
EXTT11=
EXTT12=
EXTT13=
EXTT14=
PLAYORDER=
